# Blender v3.0.0 OBJ File: 'robber.blend'
# www.blender.org
mtllib robber.mtl
o Circle.001_Circle.004
v 0.000000 0.000000 -0.250000
v -0.216506 0.000000 -0.125000
v -0.216506 0.000000 0.125000
v 0.000000 0.000000 0.250000
v 0.216506 0.000000 0.125000
v 0.216506 0.000000 -0.125000
v 0.000000 0.058265 -0.250000
v -0.216506 0.058265 -0.125000
v -0.216506 0.058265 0.125000
v 0.000000 0.058265 0.250000
v 0.216506 0.058265 0.125000
v 0.216506 0.058265 -0.125000
v 0.000000 0.113404 -0.220632
v -0.191073 0.113404 -0.110316
v -0.191073 0.113404 0.110316
v 0.000000 0.113404 0.220632
v 0.191073 0.113404 0.110316
v 0.191073 0.113404 -0.110316
v 0.000000 0.228389 -0.239604
v -0.207503 0.228389 -0.119802
v -0.207503 0.228389 0.119802
v 0.000000 0.228389 0.239604
v 0.207503 0.228389 0.119802
v 0.207503 0.228389 -0.119802
v -0.000000 0.403861 -0.241137
v -0.208831 0.403861 -0.120568
v -0.208831 0.403861 0.120568
v 0.000000 0.403861 0.241137
v 0.208831 0.403861 0.120568
v 0.208831 0.403861 -0.120568
v 0.000000 0.548122 -0.208499
v -0.180565 0.548122 -0.104249
v -0.180565 0.548122 0.104249
v 0.000000 0.548122 0.208499
v 0.180565 0.548122 0.104249
v 0.180565 0.548122 -0.104249
v -0.000000 0.645983 -0.167443
v -0.145010 0.645983 -0.083721
v -0.145010 0.645983 0.083721
v 0.000000 0.645983 0.167443
v 0.145010 0.645983 0.083721
v 0.145010 0.645983 -0.083721
v -0.000000 0.710338 -0.185424
v -0.160582 0.710338 -0.092712
v -0.160582 0.710338 0.092712
v 0.000000 0.710338 0.185424
v 0.160582 0.710338 0.092712
v 0.160582 0.710338 -0.092712
v -0.000000 0.771598 -0.191687
v -0.166006 0.771598 -0.095843
v -0.166006 0.771598 0.095843
v 0.000000 0.771598 0.191687
v 0.166006 0.771598 0.095843
v 0.166006 0.771598 -0.095843
v 0.000000 0.837272 -0.157794
v -0.136654 0.837272 -0.078897
v -0.136654 0.837272 0.078897
v 0.000000 0.837272 0.157794
v 0.136654 0.837272 0.078897
v 0.136654 0.837272 -0.078897
v 0.000000 0.879163 -0.088450
v -0.076600 0.879163 -0.044225
v -0.076600 0.879163 0.044225
v 0.000000 0.879163 0.088450
v 0.076600 0.879163 0.044225
v 0.076600 0.879163 -0.044225
vt 0.500000 1.000000
vt 0.933013 0.750000
vt 0.933013 0.250000
vt 0.500000 0.000000
vt 0.066987 0.250000
vt 0.066987 0.750000
vt 0.066987 0.750000
vt 0.066987 0.250000
vt 0.066987 0.250000
vt 0.066987 0.750000
vt 0.500000 1.000000
vt 0.933013 0.750000
vt 0.933013 0.250000
vt 0.500000 0.000000
vt 0.500000 1.000000
vt 0.066987 0.750000
vt 0.500000 1.000000
vt 0.933013 0.750000
vt 0.933013 0.250000
vt 0.500000 0.000000
vt 0.933013 0.250000
vt 0.933013 0.750000
vt 0.933013 0.750000
vt 0.933013 0.250000
vt 0.500000 0.000000
vt 0.066987 0.250000
vt 0.500000 1.000000
vt 0.500000 1.000000
vt 0.933013 0.750000
vt 0.500000 0.000000
vt 0.066987 0.250000
vt 0.066987 0.750000
vt 0.933013 0.250000
vt 0.933013 0.750000
vt 0.933013 0.250000
vt 0.500000 0.000000
vt 0.066987 0.250000
vt 0.066987 0.750000
vt 0.500000 1.000000
vt 0.500000 1.000000
vt 0.933013 0.750000
vt 0.500000 0.000000
vt 0.066987 0.250000
vt 0.066987 0.750000
vt 0.933013 0.250000
vt 0.933013 0.750000
vt 0.933013 0.250000
vt 0.500000 0.000000
vt 0.066987 0.250000
vt 0.066987 0.750000
vt 0.500000 1.000000
vt 0.500000 1.000000
vt 0.933013 0.750000
vt 0.500000 0.000000
vt 0.066987 0.250000
vt 0.066987 0.750000
vt 0.933013 0.250000
vt 0.933013 0.750000
vt 0.933013 0.250000
vt 0.500000 0.000000
vt 0.066987 0.250000
vt 0.066987 0.750000
vt 0.500000 1.000000
vt 0.066987 0.750000
vt 0.066987 0.250000
vt 0.500000 0.000000
vn 0.0000 -1.0000 0.0000
vn -0.9081 0.4188 0.0000
vn 0.5000 0.0000 -0.8660
vn 0.5000 0.0000 0.8660
vn -1.0000 0.0000 0.0000
vn 1.0000 0.0000 0.0000
vn -0.5000 0.0000 0.8660
vn -0.5000 0.0000 -0.8660
vn -0.4950 -0.1415 -0.8573
vn 0.9081 0.4188 0.0000
vn -0.4540 0.4188 0.7864
vn -0.4540 0.4188 -0.7864
vn 0.4540 0.4188 -0.7864
vn 0.4540 0.4188 0.7864
vn 1.0000 -0.0076 0.0000
vn 0.4950 -0.1415 -0.8573
vn 0.4950 -0.1415 0.8573
vn -0.9899 -0.1415 0.0000
vn 0.9899 -0.1415 0.0000
vn -0.4950 -0.1415 0.8573
vn 0.4907 0.1923 -0.8499
vn -0.5000 -0.0076 0.8660
vn -0.5000 -0.0076 -0.8660
vn 0.5000 -0.0076 -0.8660
vn 0.5000 -0.0076 0.8660
vn -1.0000 -0.0076 0.0000
vn 0.9399 0.3415 0.0000
vn 0.4907 0.1923 0.8499
vn -0.9813 0.1923 0.0000
vn 0.9813 0.1923 0.0000
vn -0.4907 0.1923 0.8499
vn -0.4907 0.1923 -0.8499
vn 0.4860 -0.2352 -0.8417
vn -0.4699 0.3415 0.8140
vn -0.4699 0.3415 -0.8140
vn 0.4699 0.3415 -0.8140
vn 0.4699 0.3415 0.8140
vn -0.9399 0.3415 0.0000
vn 0.9961 -0.0882 0.0000
vn 0.4860 -0.2352 0.8417
vn -0.9719 -0.2352 0.0000
vn 0.9719 -0.2352 0.0000
vn -0.4860 -0.2352 0.8417
vn -0.4860 -0.2352 -0.8417
vn 0.4565 0.4080 -0.7907
vn -0.4981 -0.0882 0.8627
vn -0.4981 -0.0882 -0.8627
vn 0.4981 -0.0882 -0.8627
vn 0.4981 -0.0882 0.8627
vn -0.9961 -0.0882 0.0000
vn 0.5721 0.8202 0.0000
vn 0.4565 0.4080 0.7907
vn -0.9130 0.4080 0.0000
vn 0.9130 0.4080 0.0000
vn -0.4565 0.4080 0.7907
vn -0.4565 0.4080 -0.7907
vn 0.0000 1.0000 0.0000
vn -0.2861 0.8202 0.4955
vn -0.2861 0.8202 -0.4955
vn 0.2861 0.8202 -0.4955
vn 0.2861 0.8202 0.4955
vn -0.5721 0.8202 0.0000
usemtl None
s off
f 1/1/1 6/2/1 5/3/1 4/4/1 3/5/1 2/6/1
f 8/7/2 9/8/2 15/9/2 14/10/2
f 6/2/3 1/1/3 7/11/3 12/12/3
f 4/4/4 5/3/4 11/13/4 10/14/4
f 2/6/5 3/5/5 9/8/5 8/7/5
f 5/3/6 6/2/6 12/12/6 11/13/6
f 3/5/7 4/4/7 10/14/7 9/8/7
f 1/1/8 2/6/8 8/7/8 7/11/8
f 13/15/9 14/10/9 20/16/9 19/17/9
f 11/13/10 12/12/10 18/18/10 17/19/10
f 9/8/11 10/14/11 16/20/11 15/9/11
f 7/11/12 8/7/12 14/10/12 13/15/12
f 12/12/13 7/11/13 13/15/13 18/18/13
f 10/14/14 11/13/14 17/19/14 16/20/14
f 23/21/15 24/22/15 30/23/15 29/24/15
f 18/18/16 13/15/16 19/17/16 24/22/16
f 16/20/17 17/19/17 23/21/17 22/25/17
f 14/10/18 15/9/18 21/26/18 20/16/18
f 17/19/19 18/18/19 24/22/19 23/21/19
f 15/9/20 16/20/20 22/25/20 21/26/20
f 30/23/21 25/27/21 31/28/21 36/29/21
f 21/26/22 22/25/22 28/30/22 27/31/22
f 19/17/23 20/16/23 26/32/23 25/27/23
f 24/22/24 19/17/24 25/27/24 30/23/24
f 22/25/25 23/21/25 29/24/25 28/30/25
f 20/16/26 21/26/26 27/31/26 26/32/26
f 35/33/27 36/29/27 42/34/27 41/35/27
f 28/30/28 29/24/28 35/33/28 34/36/28
f 26/32/29 27/31/29 33/37/29 32/38/29
f 29/24/30 30/23/30 36/29/30 35/33/30
f 27/31/31 28/30/31 34/36/31 33/37/31
f 25/27/32 26/32/32 32/38/32 31/28/32
f 42/34/33 37/39/33 43/40/33 48/41/33
f 33/37/34 34/36/34 40/42/34 39/43/34
f 31/28/35 32/38/35 38/44/35 37/39/35
f 36/29/36 31/28/36 37/39/36 42/34/36
f 34/36/37 35/33/37 41/35/37 40/42/37
f 32/38/38 33/37/38 39/43/38 38/44/38
f 47/45/39 48/41/39 54/46/39 53/47/39
f 40/42/40 41/35/40 47/45/40 46/48/40
f 38/44/41 39/43/41 45/49/41 44/50/41
f 41/35/42 42/34/42 48/41/42 47/45/42
f 39/43/43 40/42/43 46/48/43 45/49/43
f 37/39/44 38/44/44 44/50/44 43/40/44
f 54/46/45 49/51/45 55/52/45 60/53/45
f 45/49/46 46/48/46 52/54/46 51/55/46
f 43/40/47 44/50/47 50/56/47 49/51/47
f 48/41/48 43/40/48 49/51/48 54/46/48
f 46/48/49 47/45/49 53/47/49 52/54/49
f 44/50/50 45/49/50 51/55/50 50/56/50
f 59/57/51 60/53/51 66/58/51 65/59/51
f 52/54/52 53/47/52 59/57/52 58/60/52
f 50/56/53 51/55/53 57/61/53 56/62/53
f 53/47/54 54/46/54 60/53/54 59/57/54
f 51/55/55 52/54/55 58/60/55 57/61/55
f 49/51/56 50/56/56 56/62/56 55/52/56
f 61/63/57 62/64/57 63/65/57 64/66/57 65/59/57 66/58/57
f 57/61/58 58/60/58 64/66/58 63/65/58
f 55/52/59 56/62/59 62/64/59 61/63/59
f 60/53/60 55/52/60 61/63/60 66/58/60
f 58/60/61 59/57/61 65/59/61 64/66/61
f 56/62/62 57/61/62 63/65/62 62/64/62
