# Blender v3.0.0 OBJ File: ''
# www.blender.org
mtllib chip.mtl
o Circle.001
v 0.000000 0.000000 0.000000
v 0.000000 0.000000 -0.330000
v -0.165000 0.000000 -0.285788
v -0.285788 0.000000 -0.165000
v -0.330000 0.000000 0.000000
v -0.285788 0.000000 0.165000
v -0.165000 0.000000 0.285788
v 0.000000 0.000000 0.330000
v 0.165000 0.000000 0.285788
v 0.285788 0.000000 0.165000
v 0.330000 0.000000 -0.000000
v 0.285788 0.000000 -0.165000
v 0.165000 0.000000 -0.285788
v 0.000000 0.007261 0.000000
v 0.000000 0.007261 -0.330000
v -0.165000 0.007261 -0.285788
v -0.285788 0.007261 -0.165000
v -0.330000 0.007261 0.000000
v -0.285788 0.007261 0.165000
v -0.165000 0.007261 0.285788
v 0.000000 0.007261 0.330000
v 0.165000 0.007261 0.285788
v 0.285788 0.007261 0.165000
v 0.330000 0.007261 -0.000000
v 0.285788 0.007261 -0.165000
v 0.165000 0.007261 -0.285788
vt 0.500000 0.500000
vt 0.250000 0.933013
vt 0.500000 1.000000
vt 0.066987 0.750000
vt 0.000000 0.500000
vt 0.066987 0.250000
vt 0.250000 0.066987
vt 0.500000 0.000000
vt 0.750000 0.066987
vt 0.933013 0.250000
vt 1.000000 0.500000
vt 0.933013 0.750000
vt 0.750000 0.933013
vt 0.500000 0.500000
vt 0.500000 1.000000
vt 0.250000 0.933013
vt 0.066987 0.750000
vt 0.000000 0.500000
vt 0.066987 0.250000
vt 0.250000 0.066987
vt 0.500000 0.000000
vt 0.750000 0.066987
vt 0.933013 0.250000
vt 1.000000 0.500000
vt 0.933013 0.750000
vt 0.750000 0.933013
vn 0.0000 -1.0000 0.0000
vn 0.0000 1.0000 0.0000
vn 0.2588 0.0000 0.9659
vn -0.7071 0.0000 -0.7071
vn 0.9659 0.0000 0.2588
vn -0.2588 0.0000 -0.9659
vn -0.9659 0.0000 0.2588
vn 0.7071 0.0000 -0.7071
vn -0.2588 0.0000 0.9659
vn 0.7071 0.0000 0.7071
vn -0.9659 0.0000 -0.2588
vn 0.9659 0.0000 -0.2588
vn -0.7071 0.0000 0.7071
vn 0.2588 0.0000 -0.9659
usemtl None
s off
f 1/1/1 3/2/1 2/3/1
f 1/1/1 4/4/1 3/2/1
f 1/1/1 5/5/1 4/4/1
f 1/1/1 6/6/1 5/5/1
f 1/1/1 7/7/1 6/6/1
f 1/1/1 8/8/1 7/7/1
f 1/1/1 9/9/1 8/8/1
f 1/1/1 10/10/1 9/9/1
f 1/1/1 11/11/1 10/10/1
f 1/1/1 12/12/1 11/11/1
f 1/1/1 13/13/1 12/12/1
f 1/1/1 2/3/1 13/13/1
f 14/14/2 15/15/2 16/16/2
f 14/14/2 16/16/2 17/17/2
f 14/14/2 17/17/2 18/18/2
f 14/14/2 18/18/2 19/19/2
f 14/14/2 19/19/2 20/20/2
f 14/14/2 20/20/2 21/21/2
f 14/14/2 21/21/2 22/22/2
f 14/14/2 22/22/2 23/23/2
f 14/14/2 23/23/2 24/24/2
f 14/14/2 24/24/2 25/25/2
f 14/14/2 25/25/2 26/26/2
f 14/14/2 26/26/2 15/15/2
f 8/8/3 9/9/3 22/22/3 21/21/3
f 3/2/4 4/4/4 17/17/4 16/16/4
f 10/10/5 11/11/5 24/24/5 23/23/5
f 2/3/6 3/2/6 16/16/6 15/15/6
f 5/5/7 6/6/7 19/19/7 18/18/7
f 12/12/8 13/13/8 26/26/8 25/25/8
f 7/7/9 8/8/9 21/21/9 20/20/9
f 9/9/10 10/10/10 23/23/10 22/22/10
f 4/4/11 5/5/11 18/18/11 17/17/11
f 11/11/12 12/12/12 25/25/12 24/24/12
f 6/6/13 7/7/13 20/20/13 19/19/13
f 13/13/14 2/3/14 15/15/14 26/26/14
