# Blender v3.0.0 OBJ File: ''
# www.blender.org
mtllib chip_beveled.mtl
o Circle.001
v 0.000000 0.000000 0.000000
v 0.000000 0.000000 -0.330000
v -0.165000 0.000000 -0.285788
v -0.285788 0.000000 -0.165000
v -0.330000 0.000000 0.000000
v -0.285788 0.000000 0.165000
v -0.165000 0.000000 0.285788
v 0.000000 0.000000 0.330000
v 0.165000 0.000000 0.285788
v 0.285788 0.000000 0.165000
v 0.330000 0.000000 -0.000000
v 0.285788 0.000000 -0.165000
v 0.165000 0.000000 -0.285788
v -0.048357 0.014913 -0.048357
v -0.066057 0.014913 -0.017700
v -0.066057 0.014913 0.017700
v -0.048357 0.014913 0.048357
v -0.017700 0.014913 0.066057
v 0.017700 0.014913 0.066057
v 0.048357 0.014913 0.048357
v 0.066057 0.014913 0.017700
v 0.066057 0.014913 -0.017700
v 0.048357 0.014913 -0.048357
v 0.017700 0.014913 -0.066057
v -0.017700 0.014913 -0.066057
v -0.017700 0.014913 -0.306933
v 0.017700 0.014913 -0.306933
v 0.000000 -0.002787 -0.330000
v -0.165000 -0.002787 -0.285788
v -0.168795 0.014913 -0.256962
v -0.138138 0.014913 -0.274662
v -0.285788 -0.002787 -0.165000
v -0.274662 0.014913 -0.138138
v -0.256962 0.014913 -0.168795
v -0.330000 -0.002787 0.000000
v -0.306933 0.014913 0.017700
v -0.306933 0.014913 -0.017700
v -0.285788 -0.002787 0.165000
v -0.256962 0.014913 0.168795
v -0.274662 0.014913 0.138138
v -0.165000 -0.002787 0.285788
v -0.138138 0.014913 0.274662
v -0.168795 0.014913 0.256962
v 0.000000 -0.002787 0.330000
v 0.017700 0.014913 0.306933
v -0.017700 0.014913 0.306933
v 0.165000 -0.002787 0.285788
v 0.168795 0.014913 0.256962
v 0.138138 0.014913 0.274662
v 0.285788 -0.002787 0.165000
v 0.274662 0.014913 0.138138
v 0.256962 0.014913 0.168795
v 0.330000 -0.002787 -0.000000
v 0.306933 0.014913 -0.017700
v 0.306933 0.014913 0.017700
v 0.285788 -0.002787 -0.165000
v 0.256962 0.014913 -0.168795
v 0.274662 0.014913 -0.138138
v 0.165000 -0.002787 -0.285788
v 0.138138 0.014913 -0.274662
v 0.168795 0.014913 -0.256962
vt 0.500000 0.500000
vt 0.250000 0.933013
vt 0.500000 1.000000
vt 0.066987 0.750000
vt 0.000000 0.500000
vt 0.066987 0.250000
vt 0.250000 0.066987
vt 0.500000 0.000000
vt 0.750000 0.066987
vt 0.933013 0.250000
vt 1.000000 0.500000
vt 0.933013 0.750000
vt 0.750000 0.933013
vt 0.399914 0.526818
vt 0.083846 0.709300
vt 0.034950 0.526818
vt 0.473182 0.600086
vt 0.473182 0.965050
vt 0.290700 0.916154
vt 0.399914 0.473182
vt 0.034950 0.473182
vt 0.083846 0.290700
vt 0.426732 0.426732
vt 0.110664 0.244250
vt 0.244250 0.110664
vt 0.473182 0.399914
vt 0.290700 0.083846
vt 0.473182 0.034950
vt 0.526818 0.399914
vt 0.526818 0.034950
vt 0.709300 0.083846
vt 0.573268 0.426732
vt 0.755750 0.110664
vt 0.889336 0.244250
vt 0.600086 0.473182
vt 0.916154 0.290700
vt 0.965050 0.473182
vt 0.600086 0.526818
vt 0.965050 0.526818
vt 0.916154 0.709300
vt 0.573268 0.573268
vt 0.889336 0.755750
vt 0.755750 0.889336
vt 0.526818 0.600086
vt 0.709300 0.916154
vt 0.526818 0.965050
vt 0.250000 0.933013
vt 0.500000 1.000000
vt 0.933013 0.250000
vt 0.750000 0.066987
vt 0.000000 0.500000
vt 0.066987 0.750000
vt 0.933013 0.750000
vt 1.000000 0.500000
vt 0.750000 0.933013
vt 0.250000 0.066987
vt 0.066987 0.250000
vt 0.500000 0.000000
vt 0.426732 0.573268
vt 0.244250 0.889336
vt 0.110664 0.755750
vn 0.0000 -1.0000 0.0000
vn 0.0000 1.0000 0.0000
vn 0.2588 0.0000 0.9659
vn -0.7071 0.0000 -0.7071
vn 0.9659 0.0000 0.2588
vn -0.9659 0.0000 0.2588
vn -0.2588 0.0000 0.9659
vn 0.7071 0.0000 -0.7071
vn -0.2588 0.0000 -0.9659
vn -0.9659 0.0000 -0.2588
vn 0.9659 0.0000 -0.2588
vn -0.7071 0.0000 0.7071
vn 0.2588 0.0000 -0.9659
vn 0.7071 0.0000 0.7071
vn 0.0000 0.7934 -0.6088
vn -0.3044 0.7934 -0.5272
vn -0.5272 0.7934 -0.3044
vn -0.6088 0.7934 0.0000
vn -0.5272 0.7934 0.3044
vn -0.3044 0.7934 0.5272
vn 0.0000 0.7934 0.6088
vn 0.3044 0.7934 0.5272
vn 0.5272 0.7934 0.3044
vn 0.6088 0.7934 0.0000
vn 0.5272 0.7934 -0.3044
vn 0.3044 0.7934 -0.5272
vn -0.1830 0.7071 -0.6830
vn -0.5000 0.7071 -0.5000
vn -0.6830 0.7071 -0.1830
vn -0.6830 0.7071 0.1830
vn -0.5000 0.7071 0.5000
vn -0.1830 0.7071 0.6830
vn 0.1830 0.7071 0.6830
vn 0.5000 0.7071 0.5000
vn 0.6830 0.7071 0.1830
vn 0.6830 0.7071 -0.1830
vn 0.5000 0.7071 -0.5000
vn 0.1830 0.7071 -0.6830
usemtl None
s off
f 1/1/1 3/2/1 2/3/1
f 1/1/1 4/4/1 3/2/1
f 1/1/1 5/5/1 4/4/1
f 1/1/1 6/6/1 5/5/1
f 1/1/1 7/7/1 6/6/1
f 1/1/1 8/8/1 7/7/1
f 1/1/1 9/9/1 8/8/1
f 1/1/1 10/10/1 9/9/1
f 1/1/1 11/11/1 10/10/1
f 1/1/1 12/12/1 11/11/1
f 1/1/1 13/13/1 12/12/1
f 1/1/1 2/3/1 13/13/1
f 15/14/2 33/15/2 37/16/2
f 25/17/2 26/18/2 31/19/2
f 16/20/2 36/21/2 40/22/2
f 17/23/2 39/24/2 43/25/2
f 18/26/2 42/27/2 46/28/2
f 19/29/2 45/30/2 49/31/2
f 20/32/2 48/33/2 52/34/2
f 21/35/2 51/36/2 55/37/2
f 22/38/2 54/39/2 58/40/2
f 23/41/2 57/42/2 61/43/2
f 24/44/2 60/45/2 27/46/2
f 2/3/3 3/2/3 29/47/3 28/48/3
f 9/9/4 10/10/4 50/49/4 47/50/4
f 4/4/5 5/5/5 35/51/5 32/52/5
f 11/11/6 12/12/6 56/53/6 53/54/6
f 13/13/7 2/3/7 28/48/7 59/55/7
f 6/6/8 7/7/8 41/56/8 38/57/8
f 8/8/9 9/9/9 47/50/9 44/58/9
f 10/10/10 11/11/10 53/54/10 50/49/10
f 5/5/11 6/6/11 38/57/11 35/51/11
f 12/12/12 13/13/12 59/55/12 56/53/12
f 7/7/13 8/8/13 44/58/13 41/56/13
f 3/2/14 4/4/14 32/52/14 29/47/14
f 14/59/2 15/14/2 16/20/2 17/23/2 18/26/2 19/29/2 20/32/2 21/35/2 22/38/2 23/41/2 24/44/2 25/17/2
f 26/18/15 27/46/15 28/48/15
f 29/47/16 30/60/16 31/19/16
f 32/52/17 33/15/17 34/61/17
f 35/51/18 36/21/18 37/16/18
f 38/57/19 39/24/19 40/22/19
f 41/56/20 42/27/20 43/25/20
f 44/58/21 45/30/21 46/28/21
f 47/50/22 48/33/22 49/31/22
f 50/49/23 51/36/23 52/34/23
f 53/54/24 54/39/24 55/37/24
f 56/53/25 57/42/25 58/40/25
f 59/55/26 60/45/26 61/43/26
f 31/19/27 26/18/27 28/48/27 29/47/27
f 30/60/2 14/59/2 25/17/2 31/19/2
f 24/44/2 27/46/2 26/18/2 25/17/2
f 34/61/28 30/60/28 29/47/28 32/52/28
f 33/15/2 15/14/2 14/59/2 34/61/2
f 37/16/29 33/15/29 32/52/29 35/51/29
f 36/21/2 16/20/2 15/14/2 37/16/2
f 40/22/30 36/21/30 35/51/30 38/57/30
f 39/24/2 17/23/2 16/20/2 40/22/2
f 43/25/31 39/24/31 38/57/31 41/56/31
f 42/27/2 18/26/2 17/23/2 43/25/2
f 46/28/32 42/27/32 41/56/32 44/58/32
f 45/30/2 19/29/2 18/26/2 46/28/2
f 49/31/33 45/30/33 44/58/33 47/50/33
f 48/33/2 20/32/2 19/29/2 49/31/2
f 52/34/34 48/33/34 47/50/34 50/49/34
f 51/36/2 21/35/2 20/32/2 52/34/2
f 55/37/35 51/36/35 50/49/35 53/54/35
f 54/39/2 22/38/2 21/35/2 55/37/2
f 58/40/36 54/39/36 53/54/36 56/53/36
f 57/42/2 23/41/2 22/38/2 58/40/2
f 61/43/37 57/42/37 56/53/37 59/55/37
f 60/45/2 24/44/2 23/41/2 61/43/2
f 27/46/38 60/45/38 59/55/38 28/48/38
f 14/59/2 30/60/2 34/61/2
