# Blender v3.0.0 OBJ File: ''
# www.blender.org
mtllib city.mtl
o Cube
v 1.751828 2.288303 -1.317178
v 1.766026 -0.041467 -1.285035
v 1.750927 2.283089 0.249432
v 1.766849 -0.045634 0.335696
v 0.184606 2.287427 -1.316936
v 0.145989 -0.042336 -1.285197
v 0.185487 2.282173 0.249209
v 0.145147 -0.046475 0.335877
v 0.968571 2.282735 0.158592
v 1.661271 2.286957 -0.535730
v 0.275471 2.285900 -0.535730
v 0.968571 2.290138 -1.227252
v 0.967040 2.640692 -0.535730
v 0.509442 2.264796 0.169063
v 1.671456 2.269040 -0.076863
v 0.265154 2.267852 -0.994631
v 1.427201 2.272117 -1.237284
v 1.427660 2.264647 0.169138
v 1.671456 2.269040 -0.994597
v 0.265154 2.267852 -0.076829
v 0.509900 2.272268 -1.237213
v 0.967040 2.669740 -0.170752
v 0.967040 2.669740 -0.900708
v 1.332248 2.669640 -0.535730
v 0.602282 2.669851 -0.535730
v 0.573655 2.677286 -0.929326
v 1.360826 2.677145 -0.929316
v 1.360826 2.677145 -0.142145
v 0.573655 2.677286 -0.142134
vt 0.812500 0.687500
vt 0.875000 0.687500
vt 0.875000 0.750000
vt 0.812500 0.750000
vt 0.375000 0.750000
vt 0.625000 0.750000
vt 0.625000 0.812500
vt 0.625000 0.875000
vt 0.625000 0.937500
vt 0.625000 1.000000
vt 0.375000 1.000000
vt 0.375000 0.000000
vt 0.625000 0.000000
vt 0.625000 0.062500
vt 0.625000 0.125000
vt 0.625000 0.187500
vt 0.625000 0.250000
vt 0.375000 0.250000
vt 0.125000 0.500000
vt 0.375000 0.500000
vt 0.125000 0.750000
vt 0.625000 0.500000
vt 0.625000 0.562500
vt 0.625000 0.625000
vt 0.625000 0.687500
vt 0.625000 0.312500
vt 0.625000 0.375000
vt 0.625000 0.437500
vt 0.687500 0.687500
vt 0.750000 0.687500
vt 0.750000 0.750000
vt 0.687500 0.750000
vt 0.687500 0.562500
vt 0.750000 0.562500
vt 0.750000 0.625000
vt 0.687500 0.625000
vt 0.812500 0.562500
vt 0.875000 0.562500
vt 0.875000 0.625000
vt 0.812500 0.625000
vt 0.750000 0.500000
vt 0.812500 0.500000
vt 0.875000 0.500000
vt 0.687500 0.500000
vn -0.4082 0.8128 0.4157
vn -0.0000 0.0654 0.9979
vn -0.9990 0.0451 0.0001
vn 0.0005 -1.0000 -0.0026
vn 0.9994 0.0346 0.0001
vn -0.0000 0.0143 -0.9999
vn -0.0281 0.6236 0.7812
vn -0.0460 0.9979 0.0464
vn -0.7814 0.6234 0.0279
vn 0.0466 0.9978 0.0462
vn 0.0276 0.6272 -0.7784
vn -0.4149 0.8154 -0.4037
vn 0.7783 0.6273 0.0277
vn 0.4117 0.8169 -0.4040
vn -0.0275 0.6271 -0.7784
vn 0.4050 0.8142 0.4159
vn 0.7783 0.6273 -0.0277
vn -0.0460 0.9979 -0.0464
vn 0.0282 0.6237 0.7812
vn 0.0466 0.9978 -0.0462
vn -0.7814 0.6234 -0.0279
usemtl Material
s off
f 29/1/1 20/2/1 7/3/1 14/4/1
f 4/5/2 3/6/2 18/7/2 9/8/2 14/9/2 7/10/2 8/11/2
f 8/12/3 7/13/3 20/14/3 11/15/3 16/16/3 5/17/3 6/18/3
f 6/19/4 2/20/4 4/5/4 8/21/4
f 2/20/5 1/22/5 19/23/5 10/24/5 15/25/5 3/6/5 4/5/5
f 6/18/6 5/17/6 21/26/6 12/27/6 17/28/6 1/22/6 2/20/6
f 28/29/7 22/30/7 9/31/7 18/32/7
f 27/33/8 23/34/8 13/35/8 24/36/8
f 26/37/9 16/38/9 11/39/9 25/40/9
f 23/34/10 26/37/10 25/40/10 13/35/10
f 12/41/11 21/42/11 26/37/11 23/34/11
f 21/42/12 5/43/12 16/38/12 26/37/12
f 19/23/13 27/33/13 24/36/13 10/24/13
f 1/22/14 17/44/14 27/33/14 19/23/14
f 17/44/15 12/41/15 23/34/15 27/33/15
f 15/25/16 28/29/16 18/32/16 3/6/16
f 10/24/17 24/36/17 28/29/17 15/25/17
f 24/36/18 13/35/18 22/30/18 28/29/18
f 22/30/19 29/1/19 14/4/19 9/31/19
f 13/35/20 25/40/20 29/1/20 22/30/20
f 25/40/21 11/39/21 20/2/21 29/1/21
o Cube.001_Cube.002
v 0.021036 2.636913 -1.063558
v 0.007955 0.000814 -1.000000
v 0.021036 2.636913 0.936442
v 0.007955 0.000814 1.000000
v -1.978964 2.636913 -1.063558
v -1.992045 0.000814 -1.000000
v -1.978964 2.636913 0.936442
v -1.992045 0.000814 1.000000
v -0.978964 2.636913 0.936442
v 0.021036 2.636913 -0.063558
v -1.978964 2.636913 -0.063558
v -0.978964 2.636913 -1.063558
v -0.980495 3.203359 -0.063558
v -1.478964 2.636913 0.936442
v 0.021036 2.636913 0.436442
v -1.978964 2.636913 -0.563558
v -0.478964 2.636913 -1.063558
v -0.478964 2.636913 0.936442
v 0.021036 2.636913 -0.563558
v -1.978964 2.636913 0.436442
v -1.478964 2.636913 -1.063558
v -0.980495 3.203359 0.436442
v -0.980495 3.203359 -0.563558
v -0.480495 3.203359 -0.063558
v -1.480495 3.203359 -0.063558
v -1.480495 3.203359 -0.563558
v -0.480495 3.203359 -0.563558
v -0.480495 3.203359 0.436442
v -1.480495 3.203359 0.436442
vt 0.812500 0.687500
vt 0.875000 0.687500
vt 0.875000 0.750000
vt 0.812500 0.750000
vt 0.375000 0.750000
vt 0.625000 0.750000
vt 0.625000 0.812500
vt 0.625000 0.875000
vt 0.625000 0.937500
vt 0.625000 1.000000
vt 0.375000 1.000000
vt 0.375000 0.000000
vt 0.625000 0.000000
vt 0.625000 0.062500
vt 0.625000 0.125000
vt 0.625000 0.187500
vt 0.625000 0.250000
vt 0.375000 0.250000
vt 0.125000 0.500000
vt 0.375000 0.500000
vt 0.125000 0.750000
vt 0.625000 0.500000
vt 0.625000 0.562500
vt 0.625000 0.625000
vt 0.625000 0.687500
vt 0.625000 0.312500
vt 0.625000 0.375000
vt 0.625000 0.437500
vt 0.687500 0.687500
vt 0.750000 0.687500
vt 0.750000 0.750000
vt 0.687500 0.750000
vt 0.687500 0.562500
vt 0.750000 0.562500
vt 0.750000 0.625000
vt 0.687500 0.625000
vt 0.812500 0.562500
vt 0.875000 0.562500
vt 0.875000 0.625000
vt 0.812500 0.625000
vt 0.750000 0.500000
vt 0.812500 0.500000
vt 0.875000 0.500000
vt 0.687500 0.500000
vn -0.4425 0.7800 0.4425
vn 0.0000 0.0241 0.9997
vn -1.0000 0.0050 0.0000
vn 0.0000 -1.0000 0.0000
vn 1.0000 -0.0050 0.0000
vn 0.0000 -0.0241 -0.9997
vn 0.0000 0.6618 0.7497
vn 0.0000 1.0000 0.0000
vn -0.7507 0.6606 0.0000
vn 0.0000 0.6618 -0.7497
vn -0.4425 0.7800 -0.4425
vn 0.7487 0.6629 0.0000
vn 0.4417 0.7809 -0.4417
vn 0.4417 0.7809 0.4417
usemtl Material.002
s off
f 58/45/22 49/46/22 36/47/22 43/48/22
f 33/49/23 32/50/23 47/51/23 38/52/23 43/53/23 36/54/23 37/55/23
f 37/56/24 36/57/24 49/58/24 40/59/24 45/60/24 34/61/24 35/62/24
f 35/63/25 31/64/25 33/49/25 37/65/25
f 31/64/26 30/66/26 48/67/26 39/68/26 44/69/26 32/50/26 33/49/26
f 35/62/27 34/61/27 50/70/27 41/71/27 46/72/27 30/66/27 31/64/27
f 57/73/28 51/74/28 38/75/28 47/76/28
f 56/77/29 52/78/29 42/79/29 53/80/29
f 55/81/30 45/82/30 40/83/30 54/84/30
f 52/78/29 55/81/29 54/84/29 42/79/29
f 41/85/31 50/86/31 55/81/31 52/78/31
f 50/86/32 34/87/32 45/82/32 55/81/32
f 48/67/33 56/77/33 53/80/33 39/68/33
f 30/66/34 46/88/34 56/77/34 48/67/34
f 46/88/31 41/85/31 52/78/31 56/77/31
f 44/69/35 57/73/35 47/76/35 32/50/35
f 39/68/33 53/80/33 57/73/33 44/69/33
f 53/80/29 42/79/29 51/74/29 57/73/29
f 51/74/28 58/45/28 43/48/28 38/75/28
f 42/79/29 54/84/29 58/45/29 51/74/29
f 54/84/30 40/83/30 49/46/30 58/45/30
