# Blender v3.0.0 OBJ File: ''
# www.blender.org
mtllib hexagon_2.mtl
o Circle_Circle.001
v 0.000000 -0.100000 0.000000
v 0.000000 -0.100000 -1.000000
v -0.866025 -0.100000 -0.500000
v -0.866025 -0.100000 0.500000
v 0.000000 -0.100000 1.000000
v 0.866025 -0.100000 0.500000
v 0.866025 -0.100000 -0.500000
v 0.000000 0.000000 0.000000
v 0.000000 0.000000 -1.000000
v -0.866025 0.000000 -0.500000
v -0.866025 0.000000 0.500000
v 0.000000 0.000000 1.000000
v 0.866025 0.000000 0.500000
v 0.866025 0.000000 -0.500000
vt 0.500000 0.500000
vt 0.066987 0.750000
vt 0.500000 1.000000
vt 0.066987 0.250000
vt 0.500000 0.000000
vt 0.933013 0.250000
vt 0.933013 0.750000
vt 0.500000 0.500000
vt 0.500000 1.000000
vt 0.066987 0.750000
vt 0.066987 0.250000
vt 0.500000 0.000000
vt 0.933013 0.250000
vt 0.933013 0.750000
vn 0.0000 -1.0000 0.0000
vn 0.0000 1.0000 0.0000
vn 0.5000 0.0000 -0.8660
vn -0.5000 0.0000 -0.8660
vn 1.0000 0.0000 0.0000
vn 0.5000 0.0000 0.8660
vn -0.5000 0.0000 0.8660
vn -1.0000 0.0000 0.0000
usemtl None
s off
f 1/1/1 3/2/1 2/3/1
f 1/1/1 4/4/1 3/2/1
f 1/1/1 5/5/1 4/4/1
f 1/1/1 6/6/1 5/5/1
f 1/1/1 7/7/1 6/6/1
f 1/1/1 2/3/1 7/7/1
f 8/8/2 9/9/2 10/10/2
f 8/8/2 10/10/2 11/11/2
f 8/8/2 11/11/2 12/12/2
f 8/8/2 12/12/2 13/13/2
f 8/8/2 13/13/2 14/14/2
f 8/8/2 14/14/2 9/9/2
f 7/7/3 2/3/3 9/9/3 14/14/3
f 2/3/4 3/2/4 10/10/4 9/9/4
f 6/6/5 7/7/5 14/14/5 13/13/5
f 5/5/6 6/6/6 13/13/6 12/12/6
f 4/4/7 5/5/7 12/12/7 11/11/7
f 3/2/8 4/4/8 11/11/8 10/10/8
