# Blender v3.0.0 OBJ File: ''
# www.blender.org
mtllib settlement.mtl
o Cube
v 1.000000 1.994690 -1.000000
v 1.000000 -0.005310 -1.000000
v 1.000000 1.994690 1.000000
v 1.000000 -0.005310 1.000000
v -1.000000 1.994690 -1.000000
v -1.000000 -0.005310 -1.000000
v -1.000000 1.994690 1.000000
v -1.000000 -0.005310 1.000000
v -0.000000 1.994690 1.000000
v 1.000000 1.994690 -0.000000
v -1.000000 1.994690 -0.000000
v -0.000000 1.994690 -1.000000
v -0.001531 2.561136 -0.000000
v -0.500000 1.994690 1.000000
v 1.000000 1.994690 0.500000
v -1.000000 1.994690 -0.500000
v 0.500000 1.994690 -1.000000
v 0.500000 1.994690 1.000000
v 1.000000 1.994690 -0.500000
v -1.000000 1.994690 0.500000
v -0.500000 1.994690 -1.000000
v -0.001531 2.561136 0.500000
v -0.001531 2.561136 -0.500000
v 0.498469 2.561136 -0.000000
v -0.501531 2.561136 -0.000000
v -0.501531 2.561136 -0.500000
v 0.498469 2.561136 -0.500000
v 0.498469 2.561136 0.500000
v -0.501531 2.561136 0.500000
vt 0.812500 0.687500
vt 0.875000 0.687500
vt 0.875000 0.750000
vt 0.812500 0.750000
vt 0.375000 0.750000
vt 0.625000 0.750000
vt 0.625000 0.812500
vt 0.625000 0.875000
vt 0.625000 0.937500
vt 0.625000 1.000000
vt 0.375000 1.000000
vt 0.375000 0.000000
vt 0.625000 0.000000
vt 0.625000 0.062500
vt 0.625000 0.125000
vt 0.625000 0.187500
vt 0.625000 0.250000
vt 0.375000 0.250000
vt 0.125000 0.500000
vt 0.375000 0.500000
vt 0.125000 0.750000
vt 0.625000 0.500000
vt 0.625000 0.562500
vt 0.625000 0.625000
vt 0.625000 0.687500
vt 0.625000 0.312500
vt 0.625000 0.375000
vt 0.625000 0.437500
vt 0.687500 0.687500
vt 0.750000 0.687500
vt 0.750000 0.750000
vt 0.687500 0.750000
vt 0.687500 0.562500
vt 0.750000 0.562500
vt 0.750000 0.625000
vt 0.687500 0.625000
vt 0.812500 0.562500
vt 0.875000 0.562500
vt 0.875000 0.625000
vt 0.812500 0.625000
vt 0.750000 0.500000
vt 0.812500 0.500000
vt 0.875000 0.500000
vt 0.687500 0.500000
vn -0.4425 0.7800 0.4425
vn 0.0000 0.0000 1.0000
vn -1.0000 0.0000 0.0000
vn 0.0000 -1.0000 0.0000
vn 1.0000 0.0000 0.0000
vn 0.0000 0.0000 -1.0000
vn 0.0000 0.6618 0.7497
vn 0.0000 1.0000 0.0000
vn -0.7507 0.6606 0.0000
vn 0.0000 0.6618 -0.7497
vn -0.4425 0.7800 -0.4425
vn 0.7487 0.6629 0.0000
vn 0.4417 0.7809 -0.4417
vn 0.4417 0.7809 0.4417
usemtl Material
s off
f 29/1/1 20/2/1 7/3/1 14/4/1
f 4/5/2 3/6/2 18/7/2 9/8/2 14/9/2 7/10/2 8/11/2
f 8/12/3 7/13/3 20/14/3 11/15/3 16/16/3 5/17/3 6/18/3
f 6/19/4 2/20/4 4/5/4 8/21/4
f 2/20/5 1/22/5 19/23/5 10/24/5 15/25/5 3/6/5 4/5/5
f 6/18/6 5/17/6 21/26/6 12/27/6 17/28/6 1/22/6 2/20/6
f 28/29/7 22/30/7 9/31/7 18/32/7
f 27/33/8 23/34/8 13/35/8 24/36/8
f 26/37/9 16/38/9 11/39/9 25/40/9
f 23/34/8 26/37/8 25/40/8 13/35/8
f 12/41/10 21/42/10 26/37/10 23/34/10
f 21/42/11 5/43/11 16/38/11 26/37/11
f 19/23/12 27/33/12 24/36/12 10/24/12
f 1/22/13 17/44/13 27/33/13 19/23/13
f 17/44/10 12/41/10 23/34/10 27/33/10
f 15/25/14 28/29/14 18/32/14 3/6/14
f 10/24/12 24/36/12 28/29/12 15/25/12
f 24/36/8 13/35/8 22/30/8 28/29/8
f 22/30/7 29/1/7 14/4/7 9/31/7
f 13/35/8 25/40/8 29/1/8 22/30/8
f 25/40/9 11/39/9 20/2/9 29/1/9
